<?xml version="1.0" encoding="utf-8"?>
<!-- Generator: Adobe Illustrator 23.0.0, SVG Export Plug-In . SVG Version: 6.00 Build 0)  -->
<svg version="1.1" id="Ebene_1" xmlns="http://www.w3.org/2000/svg" xmlns:xlink="http://www.w3.org/1999/xlink" x="0px" y="0px"
	 viewBox="0 0 370.2 184.4" style="enable-background:new 0 0 370.2 184.4;" xml:space="preserve">
<style type="text/css">
	.st0{fill:#FFF119;}
	.st1{fill:#FFFFFF;}
</style>
<g>
	<g>
		<g>
			<path class="st0" d="M282.9,153.7l-6.7,6.1l-3.5-4.1l10.7-8.9h5.5v35.4h-6V153.7z"/>
			<path class="st0" d="M304.3,182.2l8.5-13.1l-0.1-0.1c-0.4,0.2-0.9,0.3-1.5,0.5c-0.6,0.1-1.2,0.1-1.8,0.1c-1.6,0-3-0.3-4.3-0.9
				s-2.4-1.4-3.4-2.5s-1.7-2.2-2.2-3.6s-0.8-2.8-0.8-4.3c0-1.8,0.3-3.5,1-5c0.6-1.5,1.5-2.8,2.6-3.8s2.4-1.9,4-2.4
				c1.5-0.6,3.2-0.9,5-0.9s3.5,0.3,5.1,0.8c1.5,0.5,2.9,1.3,4,2.4c1.1,1,2,2.3,2.6,3.8s0.9,3.2,0.9,5c0,1.9-0.3,3.6-0.9,5.1
				s-1.4,3.1-2.4,4.6l-9,14.3L304.3,182.2L304.3,182.2z M317.7,158.3c0-0.9-0.2-1.7-0.5-2.5s-0.8-1.5-1.4-2c-0.6-0.6-1.3-1-2-1.4
				c-0.8-0.3-1.6-0.5-2.5-0.5s-1.7,0.2-2.5,0.5s-1.5,0.8-2,1.4c-0.6,0.6-1,1.3-1.4,2c-0.3,0.8-0.5,1.6-0.5,2.5s0.2,1.7,0.5,2.5
				s0.8,1.5,1.4,2.1s1.3,1,2,1.4c0.8,0.3,1.6,0.5,2.5,0.5s1.7-0.2,2.5-0.5s1.5-0.8,2-1.4c0.6-0.6,1-1.3,1.4-2.1
				S317.7,159.2,317.7,158.3z"/>
		</g>
	</g>
	<g>
		<path class="st0" d="M291,42.9c-0.2-0.2-0.5-0.4-0.7-0.6c-0.2-0.2-0.5-0.4-0.7-0.6c-0.2-0.2-0.5-0.4-0.7-0.7
			c-0.2-0.2-0.4-0.4-0.6-0.5l0,0l-39,35.1c0.2,1,0.5,2,0.8,2.9c0,0.1,0,0.1,0.1,0.2c0.2,0.5,0.3,1,0.5,1.5l41-36.9
			C291.5,43.3,291.2,43.1,291,42.9z"/>
		<path class="st0" d="M297.7,46.8L297.7,46.8L297.7,46.8l-44.5,40c0.3,0.6,0.6,1.3,0.9,1.9c0.1,0.1,0.1,0.2,0.2,0.3
			c0.3,0.6,0.7,1.2,1,1.8l46.6-42L297.7,46.8z"/>
		<path class="st0" d="M291.3,0l-9.1,4.6c-2.7,1.3-5.2,2.8-7.6,4.5l-12,10.8c-3.7,4.3-6.8,9-9.2,14.2L291.3,0z"/>
		<path class="st0" d="M365.3,146.4l-32.8,29.5c-0.3,0.4-0.5,0.8-0.8,1.1c-0.1,0.1-0.2,0.2-0.3,0.4c-0.5,0.6-1,1.2-1.5,1.7l0,0
			c-2,2.1-4.3,3.9-6.9,5.3l0,0l12.4-6.4c1-0.5,1.9-1,2.8-1.5l20.2-18.2C361.3,154.6,363.5,150.6,365.3,146.4z"/>
		<path class="st0" d="M328.9,62.4L274,111.8c0.3,0.2,0.6,0.5,0.9,0.7c0.2,0.1,0.3,0.2,0.5,0.3c0.8,0.5,1.6,1,2.4,1.5l55.3-49.8
			L328.9,62.4z"/>
		<path class="st0" d="M308,52l-49.4,44.4c0.3,0.5,0.6,0.9,0.9,1.4c0.1,0.1,0.2,0.3,0.3,0.4c0.5,0.6,0.9,1.2,1.4,1.8l51-45.9L308,52
			z"/>
		<path class="st0" d="M280.7,24.2c-0.1-0.8-0.1-1.6-0.1-2.4c0-1.2,0.1-2.5,0.3-3.6l-31.7,28.6c-0.5,2.3-0.9,4.6-1.2,7L280.7,24.2z"
			/>
		<path class="st0" d="M318.4,57.2l-52.8,47.6c0.3,0.3,0.7,0.7,1,1c0.1,0.1,0.3,0.3,0.4,0.4c0.6,0.6,1.2,1.1,1.8,1.6l53.8-48.5
			L318.4,57.2z"/>
		<path class="st0" d="M284.3,35.4c-0.8-1.3-1.4-2.7-2-4.1l-34.8,31.4c0.1,1.9,0.2,3.7,0.4,5.5L284.3,35.4z"/>
		<path class="st0" d="M370.2,118.7c-0.1-1.8-0.3-3.6-0.5-5.4l-36.8,33.1c0.8,1.3,1.5,2.6,2.1,4L370.2,118.7z"/>
		<path class="st0" d="M337.1,163.1l31.9-28.8c0.4-2.2,0.8-4.5,1-6.8l-33.1,29.8c0.2,1.2,0.2,2.4,0.2,3.6
			C337.2,161.6,337.2,162.3,337.1,163.1z"/>
		<path class="st0" d="M368.2,105.9c-0.4-1.6-0.9-3.1-1.4-4.6l-41.5,37.4c1.2,0.8,2.4,1.7,3.5,2.8L368.2,105.9z"/>
		<path class="st0" d="M351.5,77.2c-0.2-0.2-0.4-0.4-0.7-0.7c-0.1-0.1-0.2-0.2-0.3-0.3c-0.7-0.7-1.5-1.4-2.2-2l-54.1,48.6l4.2,2.1
			L351.5,77.2z"/>
		<path class="st0" d="M343,70.2c-0.1-0.1-0.2-0.1-0.3-0.2c-0.2-0.1-0.3-0.2-0.5-0.3c-0.8-0.6-1.7-1.1-2.6-1.6
			c-0.2-0.1-0.4-0.2-0.5-0.3l0,0l-55.4,49.9l4.2,2.1L343,70.2z"/>
		<path class="st0" d="M358.5,85.4c-0.3-0.4-0.6-0.8-0.9-1.3l-0.1-0.1c-0.5-0.7-1.1-1.4-1.7-2.1l-51.2,46.2l4.2,2.1L358.5,85.4z"/>
		<path class="st0" d="M364.2,94.9c-0.7-1.4-1.4-2.7-2.1-4L315,133.3l4.2,2.1L364.2,94.9z"/>
	</g>
	<g>
		<path class="st1" d="M4.1,98c0.9,1.3,2,2.3,3.3,2.9c1.4,0.6,2.7,0.9,4.2,0.9c0.8,0,1.6-0.1,2.4-0.4s1.6-0.6,2.3-1.1
			c0.7-0.5,1.2-1.1,1.7-1.9c0.4-0.7,0.6-1.6,0.6-2.5c0-1.4-0.4-2.4-1.3-3.1s-1.9-1.3-3.2-1.8c-1.3-0.5-2.7-1-4.2-1.4
			c-1.5-0.5-2.9-1.1-4.2-1.9s-2.4-1.9-3.2-3.2c-0.9-1.4-1.3-3.2-1.3-5.5c0-1,0.2-2.1,0.7-3.3c0.5-1.2,1.2-2.2,2.1-3.2
			c1-1,2.2-1.8,3.7-2.4s3.3-1,5.5-1c1.9,0,3.8,0.3,5.5,0.8c1.8,0.5,3.3,1.6,4.6,3.3l-3.9,3.5c-0.6-0.9-1.5-1.7-2.5-2.3
			c-1.1-0.6-2.4-0.8-3.8-0.8c-1.3,0-2.4,0.2-3.3,0.5c-0.9,0.4-1.6,0.8-2.1,1.4c-0.5,0.5-0.9,1.1-1.1,1.8c-0.2,0.6-0.3,1.2-0.3,1.8
			c0,1.5,0.4,2.7,1.3,3.5s1.9,1.5,3.2,2c1.3,0.5,2.7,1,4.2,1.3c1.5,0.4,2.9,1,4.2,1.7c1.3,0.7,2.4,1.7,3.2,2.9
			c0.9,1.2,1.3,2.9,1.3,5c0,1.7-0.3,3.2-1,4.6c-0.6,1.4-1.5,2.5-2.6,3.5c-1.1,0.9-2.4,1.7-3.9,2.2s-3.1,0.8-4.8,0.8
			c-2.3,0-4.4-0.4-6.5-1.2c-2-0.8-3.6-2-4.9-3.7L4.1,98z"/>
		<path class="st1" d="M30.8,70h22.9v4.5h-18v10.6h16.8v4.5H35.6v11.3h18.9v4.5H30.8V70z"/>
		<path class="st1" d="M61.4,70h6.3l19.5,29.1h0.1V70h4.8v35.4H86L66.3,76.3h-0.1v29.1h-4.8V70z"/>
		<path class="st1" d="M125.8,77.6c-1-1.3-2.3-2.3-3.8-3s-3.1-1-4.8-1c-2,0-3.8,0.4-5.4,1.1c-1.6,0.8-3,1.8-4.1,3.1
			c-1.2,1.3-2,2.8-2.7,4.6c-0.6,1.8-0.9,3.6-0.9,5.6c0,1.9,0.3,3.6,0.9,5.3s1.5,3.1,2.6,4.4s2.5,2.3,4.1,3s3.5,1.1,5.5,1.1
			s3.8-0.4,5.4-1.3c1.5-0.8,2.8-2,3.9-3.5l4.1,3c-0.3,0.4-0.7,0.9-1.4,1.6s-1.5,1.4-2.6,2c-1.1,0.7-2.4,1.3-4,1.8
			c-1.5,0.5-3.3,0.8-5.4,0.8c-2.8,0-5.3-0.5-7.6-1.6s-4.2-2.5-5.8-4.2c-1.6-1.7-2.8-3.7-3.6-5.9c-0.8-2.2-1.3-4.4-1.3-6.6
			c0-2.7,0.4-5.3,1.4-7.6c0.9-2.3,2.2-4.3,3.8-6c1.6-1.7,3.6-3,5.8-3.9c2.3-0.9,4.8-1.4,7.5-1.4c2.3,0,4.6,0.5,6.9,1.3
			c2.3,0.9,4.1,2.3,5.5,4.2L125.8,77.6z"/>
		<path class="st1" d="M136.3,70h4.8v14.7h18.4V70h4.8v35.4h-4.8V89.2h-18.4v16.2h-4.8V70z"/>
		<path class="st1" d="M184.5,70h4.3l15.2,35.4h-5.6l-3.6-8.8H178l-3.5,8.8h-5.6L184.5,70z M193.1,92.4l-6.6-16.3h-0.1l-6.7,16.3
			C179.7,92.4,193.1,92.4,193.1,92.4z"/>
		<path class="st1" d="M238,99.8c-1.7,2.3-3.7,4-5.9,5s-4.7,1.5-7.3,1.5c-2.7,0-5.2-0.5-7.4-1.4c-2.3-0.9-4.2-2.2-5.8-3.9
			c-1.6-1.6-2.8-3.6-3.8-5.9c-0.9-2.3-1.3-4.8-1.3-7.5s0.5-5.2,1.3-7.5c0.9-2.3,2.2-4.2,3.8-5.9c1.6-1.6,3.5-2.9,5.8-3.9
			c2.3-0.9,4.7-1.4,7.4-1.4c2.4,0,4.6,0.4,6.7,1.3c2.1,0.9,3.9,2.3,5.5,4.3l-2.7,2.3c-1.1-1.7-2.5-2.9-4.2-3.7
			c-1.7-0.8-3.5-1.1-5.3-1.1c-2.3,0-4.4,0.4-6.2,1.2c-1.9,0.8-3.4,1.9-4.7,3.3s-2.3,3-3,5c-0.7,1.9-1,3.9-1,6.1s0.3,4.3,1,6.2
			c0.7,1.9,1.7,3.5,3,5c1.3,1.4,2.9,2.5,4.7,3.3s3.9,1.2,6.2,1.2c0.9,0,1.8-0.1,2.8-0.3s1.9-0.5,2.8-1c0.9-0.5,1.8-1,2.6-1.7
			s1.6-1.5,2.2-2.5L238,99.8z"/>
		<path class="st1" d="M241.8,87.7c0-2.7,0.5-5.2,1.4-7.5s2.1-4.2,3.7-5.9c1.6-1.6,3.5-2.9,5.8-3.9c2.3-0.9,4.7-1.4,7.4-1.4
			c2.7,0,5.2,0.5,7.4,1.4c2.3,0.9,4.2,2.2,5.8,3.9c1.6,1.7,2.9,3.6,3.8,5.9s1.4,4.8,1.4,7.5s-0.5,5.2-1.4,7.5s-2.1,4.3-3.8,5.9
			c-1.6,1.7-3.5,2.9-5.8,3.9c-2.3,0.9-4.7,1.4-7.4,1.4c-2.7,0-5.2-0.5-7.4-1.4c-2.3-0.9-4.2-2.2-5.8-3.9c-1.6-1.6-2.9-3.6-3.7-5.9
			S241.8,90.4,241.8,87.7z M245.1,87.7c0,2.2,0.3,4.3,1,6.2c0.7,1.9,1.7,3.5,3,5c1.3,1.4,2.9,2.5,4.7,3.3c1.8,0.8,3.9,1.2,6.2,1.2
			c2.3,0,4.4-0.4,6.2-1.2s3.4-1.9,4.7-3.3c1.3-1.4,2.3-3.1,3-5s1.1-4,1.1-6.2s-0.3-4.3-1.1-6.1c-0.7-1.9-1.7-3.6-3-5
			s-2.9-2.5-4.7-3.3c-1.8-0.8-3.9-1.2-6.2-1.2c-2.3,0-4.4,0.4-6.2,1.2c-1.9,0.8-3.4,1.9-4.7,3.3c-1.3,1.4-2.3,3-3,5
			C245.4,83.4,245.1,85.5,245.1,87.7z"/>
		<path class="st1" d="M285.4,70h5l12.9,29.7L316.2,70h4.7v35.4h-3.3V74.2h-0.1L304,105.4h-1.5l-13.7-31.2h-0.1v31.2h-3.3V70z"/>
		<path class="st1" d="M3,108h5l12.9,29.7L33.8,108h4.7v35.4h-3.3v-31.2h-0.1l-13.5,31.2h-1.4L6.5,112.2H6.4v31.2H3.1V108H3z"/>
		<path class="st1" d="M74.9,129.8c0,1.9-0.2,3.7-0.6,5.5c-0.4,1.7-1.2,3.3-2.2,4.6s-2.3,2.4-4,3.2c-1.6,0.8-3.7,1.2-6.1,1.2
			s-4.4-0.4-6.1-1.2s-3-1.9-4-3.2s-1.7-2.9-2.2-4.6c-0.4-1.7-0.6-3.6-0.6-5.5v-21.9h3.3v21c0,1.3,0.1,2.6,0.4,4.1
			c0.2,1.4,0.7,2.8,1.4,4s1.6,2.3,2.9,3s2.9,1.2,5,1.2s3.7-0.4,5-1.2s2.2-1.8,2.9-3c0.7-1.2,1.1-2.6,1.4-4c0.2-1.4,0.4-2.8,0.4-4.1
			v-21h3.3v21.9H74.9z"/>
		<path class="st1" d="M85.9,108h4.3l21.5,31h0.1v-31h3.3v35.4h-4.3l-21.5-31h-0.1v31h-3.3V108z"/>
		<path class="st1" d="M126.9,108h3.3v35.4h-3.3V108z"/>
		<path class="st1" d="M149.7,111h-12.1v-3h27.5v3H153v32.4h-3.3L149.7,111L149.7,111z"/>
		<path class="st1" d="M180.4,128.1l-13-20.2h3.9l10.7,16.8l11-16.8h3.7l-13,20.2v15.3h-3.3L180.4,128.1L180.4,128.1z"/>
		<path class="st1" d="M202.1,108h12.4c2.5,0,4.7,0.3,6.6,0.9c1.9,0.6,3.5,1.3,4.9,2.3s2.5,2,3.4,3.3c0.9,1.2,1.6,2.5,2.2,3.8
			c0.5,1.3,0.9,2.6,1.1,3.9s0.4,2.5,0.4,3.6c0,2.3-0.4,4.5-1.3,6.6c-0.8,2.1-2.1,4-3.7,5.7c-1.6,1.6-3.7,3-6.1,4
			c-2.4,1-5.2,1.5-8.4,1.5H202V108H202.1z M206.9,138.9h6c2,0,4-0.3,5.8-0.8s3.4-1.4,4.8-2.5c1.4-1.1,2.5-2.5,3.3-4.1
			c0.8-1.7,1.2-3.6,1.2-5.8c0-1.1-0.2-2.5-0.5-4c-0.4-1.5-1.1-3-2.1-4.3c-1-1.4-2.4-2.5-4.2-3.5s-4.1-1.4-7-1.4H207v26.4H206.9z"/>
		<path class="st1" d="M251.1,108h4.4l15.1,35.4H265l-3.5-8.8h-16.9l-3.5,8.8h-5.6L251.1,108z M259.7,130.4l-6.6-16.3H253l-6.7,16.3
			H259.7z"/>
		<path class="st1" d="M279.8,128.3L266.4,108h6.2l9.6,15.6l10-15.6h5.8l-13.4,20.3v15.1h-4.8L279.8,128.3L279.8,128.3z"/>
		<path class="st1" d="M303.1,136c0.9,1.3,2,2.3,3.3,2.9c1.3,0.6,2.7,0.9,4.2,0.9c0.8,0,1.6-0.1,2.5-0.4c0.8-0.3,1.6-0.6,2.3-1.1
			c0.7-0.5,1.2-1.1,1.7-1.9c0.4-0.7,0.7-1.6,0.7-2.5c0-1.4-0.4-2.4-1.3-3.1c-0.9-0.7-1.9-1.3-3.2-1.8s-2.7-1-4.2-1.4
			c-1.5-0.5-2.9-1.1-4.2-1.9c-1.3-0.8-2.4-1.9-3.2-3.2c-0.9-1.4-1.3-3.2-1.3-5.5c0-1,0.2-2.1,0.7-3.3c0.5-1.2,1.2-2.2,2.1-3.2
			c1-1,2.2-1.8,3.7-2.4s3.3-1,5.5-1c1.9,0,3.8,0.3,5.5,0.8c1.8,0.5,3.3,1.6,4.7,3.3l-3.9,3.5c-0.6-0.9-1.4-1.7-2.5-2.3
			c-1.1-0.6-2.4-0.8-3.8-0.8c-1.3,0-2.4,0.2-3.3,0.5c-0.9,0.4-1.6,0.8-2.1,1.4s-0.9,1.1-1.1,1.8c-0.2,0.6-0.3,1.2-0.3,1.8
			c0,1.5,0.4,2.7,1.3,3.5s1.9,1.5,3.2,2c1.3,0.5,2.7,1,4.2,1.3c1.5,0.4,2.9,1,4.2,1.7c1.3,0.7,2.4,1.7,3.2,2.9
			c0.9,1.2,1.3,2.9,1.3,5c0,1.7-0.3,3.2-1,4.6c-0.7,1.4-1.5,2.5-2.6,3.5c-1.1,0.9-2.4,1.7-3.9,2.2s-3.1,0.8-4.8,0.8
			c-2.3,0-4.4-0.4-6.5-1.2s-3.6-2-4.8-3.7L303.1,136z"/>
	</g>
</g>
</svg>
